<svg xmlns="http://www.w3.org/2000/svg" viewBox="0 0 85.056 85.056">
  <path stroke="#0f172a" fill="none" stroke-linecap="round" stroke-linejoin="round" stroke-width="2.6" d="M78.551 2.573c4.307-.48 3.733 5.208 2.77 8.055-1.348 3.988-5.415 5.967-9.379 6.223-3.867.25-3.121-5.078-2.41-7.546 1.19-4.136 4.93-6.276 9.02-6.732m-56.62.677c3.676-.695 4.67 5.394 7.08 6.64.971.501 1.963-.358 2.71-.862 1.275-.861 2.35-1.1 3.546.098 5.19 5.205 5.194 14.693 1.919 20.816-.945 1.766-2.055 3.328-3.416 4.716a19.321 19.321 0 0 1-2.844 2.376c-2.218 1.537-4.737 2.51-7.408 2.991-4.234.764-8.623.14-12.435-1.836-1.301-.675-3.095-1.56-3.653-3.006C6.857 33.7 9.572 31.15 8.826 29.9c-1.426-2.387-6.382-3.096-6.524-6.573-.099-2.433 3.896-3.994 4.334-6.104.583-2.805-2.08-6.632-.108-9.251 2.126-2.824 7.415.926 10.004-.113 2.145-.861 2.953-4.145 5.4-4.608m1.058 8.172c.082 2.18.053 4.385-.93 6.35a11.526 11.526 0 0 1-2.298 3.108 10.531 10.531 0 0 1-2.858 2.015c-1.969.941-4.18.96-6.35.962m38.91-11.738c4.324-.832 8.961.902 11.065 4.86 1.063 2 2.529 6.915-.526 7.658-4.023.979-8.821-.516-10.872-4.222-1.171-2.116-3.264-7.603.333-8.296m-34.676 3.536 5.027 5.027 3.969 3.969 5.291 5.291 2.382 2.382 2.645 2.646 3.97 3.968M32.514 19.36c.112 2.706.008 5.278-1.351 7.673a13.53 13.53 0 0 1-2.162 2.853 11.824 11.824 0 0 1-3.102 2.272c-2.318 1.164-4.848 1.224-7.408 1.225m30.958 5.872c6.315-1.371 8.062 11.474 2.11 12.975-1.773.447-3.406-.53-4.426-1.942-2.228-3.085-2.404-10.008 2.316-11.033m15.61-.01c6.685-1.124 6.54 11.986.528 13.06-6.49 1.16-6.645-12.033-.529-13.06M36.511 48.52c5.627-2.015 10.788 9.436 4.71 11.519-5.626 1.927-10.474-9.456-4.71-11.52m40.454-.067c2.909-.7 4.754 1.843 4.736 4.508-.02 3.037-2.165 6.457-5.265 7.16-2.643.6-4.443-1.807-4.557-4.25-.14-3.009 2.047-6.688 5.086-7.418m-20.373 10.51c5.73-.953 9.614 4.276 12.935 8.021 1.53 1.727 3.478 3.512 4.052 5.82 1.077 4.336-1.797 9.152-6.404 9.882-3.875.614-5.576-2.79-8.996-3.112-1.878-.177-3.25 1.255-4.762 2.131-2.825 1.636-6.235 1.292-8.69-.848-6.04-5.261-.91-11.314 3.07-15.725 2.456-2.722 4.987-5.535 8.795-6.169"/>
</svg>
