<svg xmlns="http://www.w3.org/2000/svg" viewBox="0 0 227.124 85.056">
  <path fill="none" stroke="#090909" stroke-linecap="round" stroke-linejoin="round" stroke-width="2.6" d="M78.551 2.573c4.307-.48 3.733 5.208 2.77 8.055-1.348 3.988-5.415 5.967-9.379 6.223-3.867.25-3.121-5.078-2.41-7.546 1.19-4.136 4.93-6.276 9.02-6.732m-56.62.677c3.676-.695 4.67 5.394 7.08 6.64.971.501 1.963-.358 2.71-.862 1.275-.861 2.35-1.1 3.546.098 5.19 5.205 5.194 14.693 1.919 20.816-.945 1.766-2.055 3.328-3.416 4.716a19.321 19.321 0 0 1-2.844 2.376c-2.218 1.537-4.737 2.51-7.408 2.991-4.234.764-8.623.14-12.435-1.836-1.301-.675-3.095-1.56-3.653-3.006C6.857 33.7 9.572 31.15 8.826 29.9c-1.426-2.387-6.382-3.096-6.524-6.573-.099-2.433 3.896-3.994 4.334-6.104.583-2.805-2.08-6.632-.108-9.251 2.126-2.824 7.415.926 10.004-.113 2.145-.861 2.953-4.145 5.4-4.608m1.058 8.172c.082 2.18.053 4.385-.93 6.35a11.526 11.526 0 0 1-2.298 3.108 10.531 10.531 0 0 1-2.858 2.015c-1.969.941-4.18.96-6.35.962m38.91-11.738c4.324-.832 8.961.902 11.065 4.86 1.063 2 2.529 6.915-.526 7.658-4.023.979-8.821-.516-10.872-4.222-1.171-2.116-3.264-7.603.333-8.296m-34.676 3.536 5.027 5.027 3.969 3.969 5.291 5.291 2.382 2.382 2.645 2.646 3.97 3.968M32.514 19.36c.112 2.706.008 5.278-1.351 7.673a13.53 13.53 0 0 1-2.162 2.853 11.824 11.824 0 0 1-3.102 2.272c-2.318 1.164-4.848 1.224-7.408 1.225m30.958 5.872c6.315-1.371 8.062 11.474 2.11 12.975-1.773.447-3.406-.53-4.426-1.942-2.228-3.085-2.404-10.008 2.316-11.033m15.61-.01c6.685-1.124 6.54 11.986.528 13.06-6.49 1.16-6.645-12.033-.529-13.06M36.511 48.52c5.627-2.015 10.788 9.436 4.71 11.519-5.626 1.927-10.474-9.456-4.71-11.52m40.454-.067c2.909-.7 4.754 1.843 4.736 4.508-.02 3.037-2.165 6.457-5.265 7.16-2.643.6-4.443-1.807-4.557-4.25-.14-3.009 2.047-6.688 5.086-7.418m-20.373 10.51c5.73-.953 9.614 4.276 12.935 8.021 1.53 1.727 3.478 3.512 4.052 5.82 1.077 4.336-1.797 9.152-6.404 9.882-3.875.614-5.576-2.79-8.996-3.112-1.878-.177-3.25 1.255-4.762 2.131-2.825 1.636-6.235 1.292-8.69-.848-6.04-5.261-.91-11.314 3.07-15.725 2.456-2.722 4.987-5.535 8.795-6.169"/>
  <g stroke-width=".239" aria-label="Agne Vaitkeviciute Photography" font-family="Noteworthy" font-size="25.462" font-weight="700" style="line-height:1">
    <path d="M117.054 113.288q0 1.527-1.369 1.56.16.731.7 1.972-.031.7-.572 1.146-.541.446-1.273.446-.573 0-1.337-.35-.414-.828-.414-1.974 0-.286.032-.827.032-.541.032-.796 0 .223-1.05.223-1.783 0-4.234.16-3.5.19-3.819.54-.286.35-.382 3.406-.414.604-1.05.604-.669 0-1.369-.54-.7-.574-.7-1.21 0-.223.573-1.782.637-2.26 2.069-6.78 4.265-11.68 7.097-11.68 2.77 0 4.265 6.174.669 2.77 1.241 8.498.828.191 1.05.318.51.287.51.892zm-4.456-1.21q-1.4-11.108-2.514-11.108-.891 0-3.12 5.22-1.59 3.756-2.514 6.525 1.019-.223 3.024-.541 1.814-.223 5.124-.096zm17.877-2.61q-.063.796-.414 2.801-.318 1.75-.318 2.8 0 .956.096 2.865.095 1.91.095 2.865 0 1.973-.382 2.928-.445 1.21-1.687 1.941-1.24.764-2.578.764-1.4 0-3.469-.764-2.482-.89-2.482-1.973 0-1.4 1.305-1.4.604 0 .827.35.414.636.541.764.16.127 1.05.286.892.191 1.242.191 2.864 0 2.864-3.596 0-1.05-.095-1.783-1.369 1.178-3.279 1.178-.795 0-1.782-.446-.987-.445-1.496-1.05-.986-1.146-.986-3.406 0-2.705 1.24-5.951 1.529-3.979 3.725-3.979 1.336 0 2.546 1.242.891 1.177 1.782 2.323.255.318.796.573.668.318.86.477zm-3.214 1.91q0-.478-.446-.796-.19-2.928-2.037-2.928-1.05 0-1.75 2.96-.51 2.26-.51 3.915 0 3.119 1.624 3.119 1.527 0 2.418-2.483.7-1.91.7-3.787zm16.824 7.32q-.477.732-1.177.732-.541 0-1.783-.636v-.382q0-.7.032-2.07.064-1.368.064-2.004 0-6.811-2.037-6.811-.573 0-1.305.89-2.26 2.738-2.26 6.59 0 .54.191 1.622.223 1.05.223 1.592 0 .445-.414.732-.413.286-.89.286-1.91 0-1.91-2.419v-6.652q0-.254.063-.732.064-.509.064-.763 0-.382-.128-1.114-.095-.732-.095-1.083 0-.509.573-.954.605-.478 1.082-.478.7 0 1.432.796l-.095 1.273q1.177-1.878 2.896-1.878 1.114 0 2.355.764 1.242.764 1.814 1.719 1.305 2.419 1.305 6.365zm12.644-2.578q0 1.592-2.164 2.483-1.687.7-3.533.7-4.902 0-4.902-5.57 0-2.291 1.114-5.092 1.369-3.438 3.31-3.438 1.75 0 3.756 1.56 2.037 1.56 2.037 3.246 0 2.1-1.878 3.342-1.655 1.114-3.947 1.114-.445 0-1.432-.54.128 3.023 1.783 3.023 1.4 0 2.737-.796 1.368-.796 1.75-.796 1.369 0 1.369.764zm-3.47-6.015q0-.796-.477-1.496-.445-.732-1.21-.732-1.05 0-1.622.923-.478.796-.478 1.878 0 .604.414.986t1.05.382q2.324 0 2.324-1.941zm-37.924 15.194q0 2.61-.827 7.002-.605 3.087-2.26 7.575-2.196 5.856-3.787 5.856-1.592 0-2.483-.477-1.941-1.05-3.374-8.212-.795-4.837-1.623-9.675-.064-.35-.286-.987-.16-.159-.319-.35-.127-.19-.127-.477 0-.637.796-1.146.7-.478 1.4-.478.796 0 1.432.605.637.573.637 1.369 0 .573-.095 1.75-.064 1.178-.064 1.75 0 2.61.796 6.27 1.464 6.812 2.387 6.812.604 0 1.177-.987 1.496-2.514 2.706-7.638 1.177-4.902 1.177-8.085 0-.732-.477-1.082-.446-.382-.446-.445 0-.35.796-.923.796-.573 1.178-.573.668 0 1.177.923.51.891.51 1.623zm12.9 14.641q0 4.105-.254 5.792-.16.987-1.337.987-1.782 0-1.591-1.782-1.592.763-3.31.763-1.655 0-3.151-.827-1.783-.987-1.783-2.514 0-1.496 2.037-2.801 1.846-1.178 3.47-1.178h2.705v-.764q.032-3.342-1.974-3.342-2.514 0-2.514 2.356 0 .795-.891.795-.541 0-1.146-.477-.573-.51-.573-1.05 0-1.783 1.273-2.929 1.273-1.145 3.056-1.145 5.983 0 5.983 8.116zm-3.214 1.145q0-.636-.955-.636-3.978 0-3.978 1.878 0 1.018 1.75 1.018 1.082 0 2.037-.605 1.146-.668 1.146-1.655zm9.604-12.445q0 .701-.478 1.147-.477.445-1.177.445-.828 0-1.56-.573-.7-.573-.7-1.4 0-.7.477-1.146.51-.445 1.242-.445.859 0 1.527.573.669.54.669 1.4zm-.287 4.457q0 .573-.254 1.623-.255 1.05-.255 1.623v6.557q0 .604.35 1.91-.477.731-1.05.731-2.005 0-2.196-2.005-.319-3.724-.319-5.602 0-3.15.255-5.283-.032-.159-.032-.318 0-.573.891-.573.796 0 1.592.318 1.018.35 1.018 1.019zm8.24.859q0 .86-2.642 1.21-.064.7-.064 3.182v2.1q0 .637.191 1.879.223 1.24.223 1.846 0 .509-.51.923-.508.382-1.018.382-.795 0-1.336-1.369-.414-1.05-.414-2.037v-6.747q-1.464-.223-1.687-.287-.828-.254-.828-.732 0-.127.064-.286.828-1.178 1.846-1.178h.191q.127.032.191.032.668 0 .637-1.56v-2.323q-.191-.35-.191-.605 0-.413.477-.732.51-.35.955-.35.668 0 1.273.637.605.604.605 1.305 0 .763-.255 1.527-.223.732-.19 1.528v.127q2.482.255 2.482 1.528zm13.968 12.381q-1.21.891-1.91.891-.923 0-2.673-1.91-1.242-1.336-2.451-2.705-.7-.827-2.228-2.323l-.095.063v2.801q0 .255.19.764.223.478.223.764 0 .446-.477.764-.446.35-.923.35-.828 0-1.369-.541-.54-.541-.54-1.369v-4.201q0-.382.095-1.146.127-.795.127-1.177V128.8q0-1.941-.286-3.119-.128-.541-.128-.828 0-.604.732-1.082.637-.445 1.273-.445.478 0 1.019.382.573.35.573.795 0 .128-.191.892-.191.763-.191 2.355 0 .509-.096 8.498.128-.128 3.438-3.151 2.737-2.546 3.214-2.546 1.687 0 1.623 2.068v.319q-1.368.795-3.532 2.514-2.738 2.132-2.738 2.833 0 .063 1.72 2.005 1.622 1.846 2.036 2.291 1.91 2.005 3.565 2.738z" style="-inkscape-font-specification:'Noteworthy Bold'" transform="translate(-9.075 -96.406)"/>
    <path d="M166.078 142.55q0 1.59-2.164 2.482-1.687.7-3.533.7-4.901 0-4.901-5.57 0-2.291 1.114-5.092 1.368-3.437 3.31-3.437 1.75 0 3.755 1.56 2.037 1.559 2.037 3.246 0 2.1-1.878 3.341-1.655 1.114-3.946 1.114-.446 0-1.432-.54.127 3.023 1.782 3.023 1.4 0 2.737-.796 1.369-.795 1.75-.795 1.37 0 1.37.763zm-3.47-6.016q0-.796-.476-1.496-.446-.732-1.21-.732-1.05 0-1.623.923-.478.796-.478 1.878 0 .605.414.987t1.05.382q2.324 0 2.324-1.942zm15.376-3.374q0 2.292-1.465 7.002-1.718 5.411-3.341 5.411-2.324 0-4.138-4.551-1.114-2.833-1.814-6.62-.16-.923-.16-1.433 0-.509.446-.89.478-.414.987-.414.605 0 1.878.923-.223.732-.223 1.24 0 1.72.828 4.488.859 2.77 1.845 4.17v.095q1.146 0 1.783-4.328.445-2.96.445-5.41 0-.478.478-.828.51-.35.986-.35 1.465 0 1.465 1.495zm6.023-4.52q0 .701-.478 1.147-.477.445-1.177.445-.828 0-1.56-.573-.7-.573-.7-1.4 0-.7.478-1.146.509-.445 1.24-.445.86 0 1.528.573.669.54.669 1.4zm-.287 4.457q0 .573-.254 1.623-.255 1.05-.255 1.623v6.557q0 .604.35 1.91-.477.731-1.05.731-2.005 0-2.196-2.005-.318-3.724-.318-5.602 0-3.15.254-5.283-.032-.159-.032-.318 0-.573.892-.573.795 0 1.591.318 1.018.35 1.018 1.019zm12.715 8.657q0 .986-1.495 2.323-1.337 1.241-2.42 1.56-1.05.318-2.004.318-2.515 0-3.947-1.591-1.4-1.592-1.4-4.106 0-2.45 1.304-5.474 1.56-3.629 3.629-3.629 1.146 0 2.769.891 1.718.987 2.005 1.974.255.86.255 1.941 0 .987-.414 2.228-.51 1.591-1.273 1.591-.541 0-1.019-.318-.573-.35-.573-.86 0-.03.287-.731.159-.318.159-1.75 0-1.178-.096-1.528-.19-.987-.89-.987-1.56 0-2.42 2.705-.636 2.005-.636 4.042 0 3.406 2.164 3.406.86 0 1.973-.891 1.019-.828 1.433-1.687.509-1.019 1.24-1.019.478 0 .924.573.445.541.445 1.019zm5.525-13.114q0 .701-.478 1.147-.477.445-1.178.445-.827 0-1.56-.573-.7-.573-.7-1.4 0-.7.478-1.146.51-.445 1.241-.445.86 0 1.528.573.668.54.668 1.4zm-.287 4.457q0 .573-.255 1.623-.254 1.05-.254 1.623v6.557q0 .604.35 1.91-.478.731-1.05.731-2.006 0-2.196-2.005-.319-3.724-.319-5.602 0-3.15.255-5.283-.032-.159-.032-.318 0-.573.891-.573.796 0 1.592.318 1.018.35 1.018 1.019zm11.665.891q0 .987-.255 2.992-.223 1.973-.223 2.991 0 .892.064 2.674.096 1.75.096 2.61 0 .732-1.242.732-1.273 0-1.623-1.241-1.21.795-2.355.795-.923 0-2.1-.477-1.178-.51-1.656-1.21-.923-1.336-.923-4.296 0-1.019.064-3.565.095-2.26.064-3.533.954-.7 1.59-.7 1.529 0 1.529 1.496 0 .51-.16 1.528-.127 1.018-.127 1.527v4.488q0 .764.414 1.591.51.955 1.21.955 1.368 0 2.036-1.75.446-1.21.446-2.928v-3.82q0-.732-.382-1.814.796-.732 1.528-.732.764 0 1.368.477.637.478.637 1.21zm9.305-.032q0 .86-2.641 1.21-.064.7-.064 3.182v2.1q0 .637.19 1.879.224 1.24.224 1.846 0 .509-.51.923-.509.382-1.018.382-.796 0-1.337-1.369-.414-1.05-.414-2.037v-6.747q-1.464-.223-1.686-.287-.828-.254-.828-.732 0-.127.064-.286.827-1.178 1.846-1.178h.19q.128.032.192.032.668 0 .636-1.56v-2.323q-.19-.35-.19-.605 0-.413.477-.732.509-.35.955-.35.668 0 1.273.637.604.604.604 1.305 0 .763-.254 1.527-.223.732-.191 1.528v.127q2.482.255 2.482 1.528zm11.217 8.594q0 1.59-2.164 2.482-1.687.7-3.533.7-4.901 0-4.901-5.57 0-2.291 1.114-5.092 1.368-3.437 3.31-3.437 1.75 0 3.756 1.56 2.037 1.559 2.037 3.246 0 2.1-1.878 3.341-1.655 1.114-3.947 1.114-.445 0-1.432-.54.127 3.023 1.782 3.023 1.4 0 2.737-.796 1.369-.795 1.75-.795 1.37 0 1.37.763zm-3.469-6.016q0-.796-.477-1.496-.446-.732-1.21-.732-1.05 0-1.623.923-.477.796-.477 1.878 0 .605.414.987.413.382 1.05.382 2.323 0 2.323-1.942zM115.59 158.603q0 .7-.096 1.241-1.24 7.352-6.97 7.352-2.928 0-5.251-1.495v.668q-.032 2.132.382 2.928.604 1.114.604 1.273 0 .637-.509 1.114-.477.478-1.114.478-1.432 0-1.941-1.019-.287-.605-.382-2.26-.064-1.082-.064-2.482 0-.541.127-1.623.16-1.083.16-1.655v-2.165q-.032-.955.127-2.8.159-1.878.159-2.77v-2.864q0-.064-.318-1.719.827-.764 1.56-.764.859 0 1.368.637.509.605.509 1.496 0 .223-.032.446 2.1-2.77 5.315-2.77 3.024 0 4.775 2.26 1.56 2.037 1.56 5.156v.669q.03.445.03.668zm-2.865-.51q0-2.195-.668-3.755-.923-2.1-2.833-2.1-2.45 0-4.2 2.991-1.56 2.61-1.56 5.252 0 4.424 4.456 4.424 2.387 0 3.5-2.069.637-1.146 1.21-4.17.095-.604.095-.572zm15.317 14.196q-.604.605-1.591.605-.668 0-1.369-.828.032-2.8.032-4.328 0-7.066-2.069-7.066-2.132 0-2.132 5.697 0 .318.032.923v.923q0 .477.159 1.464.16.955.16 1.432 0 .414-.51.732-.478.35-.891.35-.796 0-1.369-.636-.54-.669-.54-1.464l.19-18.396q0-.096-.032-.255-.032-.16-.032-.223 0-1.146 1.274-1.146.604 0 1.4.573.796.541.796 1.114 0 .7-.319 2.069-.286 1.369-.286 2.069 0 .89.064 2.832.7-.413 1.177-.413 1.241 0 2.705.604 1.878.796 2.61 2.578.541 1.337.541 3.692zm13-6.779q0 2.864-1.432 4.901-1.655 2.323-4.393 2.323-2.8 0-4.233-1.91-1.304-1.686-1.304-4.582 0-2.865 1.432-5.411 1.655-3.024 4.296-3.024.828 0 2.07.732 3.564 2.133 3.564 6.97zm-2.8-.064q0-4.87-2.356-4.87-1.687 0-2.546 2.07-.637 1.559-.637 3.532 0 4.233 2.514 4.233 1.624 0 2.42-1.75.604-1.337.604-3.215zm11.298-5.061q0 .86-2.642 1.21-.064.7-.064 3.183v2.1q0 .637.191 1.878.223 1.241.223 1.846 0 .51-.509.923-.51.382-1.019.382-.795 0-1.336-1.369-.414-1.05-.414-2.037v-6.747q-1.464-.223-1.687-.286-.827-.255-.827-.732 0-.128.063-.287.828-1.178 1.846-1.178h.191q.128.032.191.032.669 0 .637-1.56v-2.323q-.191-.35-.191-.604 0-.414.477-.732.51-.35.955-.35.668 0 1.273.636.605.605.605 1.305 0 .764-.255 1.528-.223.732-.19 1.527v.128q2.482.254 2.482 1.527zm11.891 5.125q0 2.864-1.432 4.901-1.655 2.323-4.392 2.323-2.8 0-4.233-1.91-1.305-1.686-1.305-4.582 0-2.865 1.432-5.411 1.655-3.024 4.297-3.024.827 0 2.069.732 3.564 2.133 3.564 6.97zm-2.8-.064q0-4.87-2.356-4.87-1.687 0-2.546 2.07-.636 1.559-.636 3.532 0 4.233 2.514 4.233 1.623 0 2.419-1.75.604-1.337.604-3.215zm15.806-3.119q-.064.796-.414 2.8-.318 1.751-.318 2.801 0 .955.095 2.865.096 1.91.096 2.864 0 1.974-.382 2.929-.446 1.209-1.687 1.941-1.241.764-2.578.764-1.4 0-3.47-.764-2.482-.891-2.482-1.973 0-1.4 1.305-1.4.605 0 .828.35.413.636.54.763.16.128 1.051.287.891.19 1.241.19 2.865 0 2.865-3.596 0-1.05-.096-1.782-1.368 1.177-3.278 1.177-.796 0-1.782-.445-.987-.446-1.496-1.05-.987-1.146-.987-3.406 0-2.705 1.241-5.952 1.528-3.978 3.724-3.978 1.337 0 2.546 1.241.892 1.178 1.783 2.324.254.318.795.572.669.319.86.478zm-3.215 1.91q0-.478-.445-.796-.191-2.928-2.037-2.928-1.05 0-1.75 2.96-.51 2.26-.51 3.914 0 3.12 1.623 3.12 1.528 0 2.419-2.483.7-1.91.7-3.787zm13.841-3.406q0 .223-.064.7-.668.955-1.4.955-.605 0-1.082-.7-.064-1.432-1.019-1.432-.572 0-1.4 3.023-.382 1.337-.382 3.724 0 2.26.223 2.737.254.605.254.828 0 .54-.509.89-.477.32-1.082.32-1.719 0-1.719-1.592 0-.16.064-.446.096-.286.096-.414 0-1.623-.16-4.806-.159-3.214-.159-4.805 0-1.433 1.719-1.433 1.019 0 1.4.605.892-.987 2.006-.987.763 0 1.464.414.477.255 1.114 1.114.636.828.636 1.305zm11.701 5.538q0 4.106-.255 5.793-.16.986-1.337.986-1.782 0-1.591-1.782-1.591.764-3.31.764-1.655 0-3.151-.828-1.782-.986-1.782-2.514 0-1.496 2.037-2.801 1.846-1.178 3.469-1.178h2.705v-.763q.032-3.342-1.973-3.342-2.515 0-2.515 2.355 0 .796-.89.796-.542 0-1.147-.478-.572-.51-.572-1.05 0-1.782 1.273-2.928t3.055-1.146q5.984 0 5.984 8.116zm-3.215 1.146q0-.637-.955-.637-3.978 0-3.978 1.878 0 1.018 1.75 1.018 1.082 0 2.037-.604 1.146-.669 1.146-1.655zm16.733-3.31q0 3.246-1.145 5.506-1.433 2.928-4.329 2.928-1.56 0-2.673-.891v1.909q0 3.056.7 4.806.318.7.318.892 0 1.082-1.273 1.082-.955 0-1.432-.35-.35-.223-.7-1.592-.287-1.21-.287-1.846v-7.67q0-1.05.127-2.865.128-2.037.16-2.832.031-.796 0-2.1-.032-1.656-.032-2.133 0-2.706 1.782-2.706.446 0 .828.319.381.286.381.7 0 .7-.159 2.546 1.242-1.75 2.992-1.75 2.355 0 3.628 1.91 1.114 1.654 1.114 4.137zm-2.832-.287q0-3.437-1.464-3.437-.637 0-1.655 1.241-1.974 2.387-2.165 6.588.35.191 1.242 1.337.7.86 1.4.86 2.642 0 2.642-6.589zm15.03 8.371q-.605.605-1.591.605-.669 0-1.369-.828.032-2.8.032-4.328 0-7.066-2.069-7.066-2.132 0-2.132 5.697 0 .318.032.923v.923q0 .477.159 1.464.159.955.159 1.432 0 .414-.51.732-.477.35-.89.35-.796 0-1.37-.636-.54-.669-.54-1.464l.19-18.396q0-.096-.031-.255-.032-.16-.032-.223 0-1.146 1.273-1.146.605 0 1.4.573.796.541.796 1.114 0 .7-.318 2.069-.286 1.369-.286 2.069 0 .89.063 2.832.7-.413 1.178-.413 1.241 0 2.705.604 1.878.796 2.61 2.578.541 1.337.541 3.692zm12.72-12.731q-.287 1.591-.542 3.15-.318 1.847-.318 3.152v8.657q0 2.355-1.369 3.596-1.336 1.242-3.692 1.242-1.527 0-3.373-.796-2.196-.923-2.196-2.228 0-.446.35-.764.382-.286.827-.286.287 0 1.369.859 1.082.86 2.482.86 1.783 0 2.387-1.306.446-.89.446-2.864 0-.732-.032-1.21-1.05.7-2.355.7-2.387 0-3.692-1.718-1.178-1.56-1.178-3.978 0-.255.319-8.02.954-.415 1.527-.415.637 0 1.878.764-.764 1.91-.764 7.639 0 3.66 1.846 3.66 1.369 0 2.1-2.292.542-1.655.542-3.437v-3.883q0 .032-.096-1.05 1.305-.637 1.942-.637.668 0 1.591.605z" style="-inkscape-font-specification:'Noteworthy Bold'" transform="translate(-9.075 -96.406)"/>
  </g>
</svg>
